<svg xmlns="http://www.w3.org/2000/svg" version="1.1" xmlns:xlink="http://www.w3.org/1999/xlink" xmlns:svgjs="http://svgjs.dev/svgjs" width="2000" height="1500" viewBox="0 0 2000 1500"><rect width="2000" height="1500" fill="#e9e9e9"></rect><g transform="matrix(0.75,0,0,0.75,249.090909090909,566.8387125538901)"><svg viewBox="0 0 396 97" data-background-color="" preserveAspectRatio="xMidYMid meet" height="489" width="2000" xmlns="http://www.w3.org/2000/svg" xmlns:xlink="http://www.w3.org/1999/xlink"><g id="tight-bounds" transform="matrix(1,0,0,1,0.2400000000000091,-0.05652383838400965)"><svg viewBox="0 0 395.52 97.11304767676799" height="97.11304767676799" width="395.52"><g><svg viewBox="0 0 547.3833321320244 134.40044405037779" height="97.11304767676799" width="395.52"><g transform="matrix(1,0,0,1,151.86333213202448,36.274277440806024)"><svg viewBox="0 0 395.52 61.85188916876574" height="61.85188916876574" width="395.52"><g id="textblocktransform"><svg viewBox="0 0 395.52 61.85188916876574" height="61.85188916876574" width="395.52" id="textblock"><g><svg viewBox="0 0 395.52 61.85188916876574" height="61.85188916876574" width="395.52"><g transform="matrix(1,0,0,1,0,0)"><svg width="395.52" viewBox="1.34 -25.81 231.98999999999998 36.379999999999995" height="61.85188916876574" data-palette-color="#068026"><g class="wordmark-text-0" data-fill-palette-color="primary" id="text-0"><path d="M10.79 0.61L10.79 0.61Q8.11 0.61 5.62-0.34 3.13-1.29 1.34-3.03L1.34-3.03 3.66-5.98Q5.3-4.66 7.07-3.99 8.84-3.32 10.96-3.32L10.96-3.32Q13.18-3.32 14.29-4.31 15.41-5.3 15.41-6.76L15.41-6.76Q15.41-7.91 14.62-8.68 13.84-9.45 12.6-10.01 11.35-10.57 9.94-11.08L9.94-11.08Q8.08-11.74 6.45-12.68 4.81-13.62 3.78-15.03 2.76-16.43 2.76-18.46L2.76-18.46Q2.76-21.61 5.11-23.71 7.47-25.81 11.67-25.81L11.67-25.81Q14.16-25.81 16.22-24.96 18.29-24.12 19.8-22.85L19.8-22.85 17.53-19.9Q14.79-21.85 11.79-21.85L11.79-21.85Q9.64-21.85 8.65-20.91 7.67-19.97 7.67-18.7L7.67-18.7Q7.67-17.16 9.06-16.36 10.45-15.55 12.77-14.7L12.77-14.7Q14.72-14.04 16.46-13.11 18.19-12.18 19.25-10.73 20.31-9.28 20.31-7.03L20.31-7.03Q20.31-3.86 17.87-1.62 15.43 0.61 10.79 0.61ZM33.32 0.61L33.32 0.61Q29.32 0.61 27.46-1.95 25.61-4.52 25.61-9.3L25.61-9.3 25.61-25.17 30.76-25.17 30.76-9.96Q30.76-6.69 31.78-5.26 32.81-3.83 35.08-3.83L35.08-3.83Q36.84-3.83 38.21-4.74 39.57-5.64 41.18-7.67L41.18-7.67 41.18-25.17 46.34-25.17 46.34 0 42.09 0 41.7-3.81 41.5-3.81Q39.82-1.81 37.86-0.6 35.91 0.61 33.32 0.61ZM59.44 0L54.27 0 54.27-25.17 58.54-25.17 58.95-20.68 59.08-20.68Q60.42-23.1 62.3-24.45 64.18-25.81 66.25-25.81L66.25-25.81Q67.89-25.81 69.04-25.29L69.04-25.29 67.94-20.87Q67.35-21.04 66.85-21.12 66.35-21.19 65.57-21.19L65.57-21.19Q64.03-21.19 62.34-19.97 60.64-18.75 59.44-15.72L59.44-15.72 59.44 0ZM84.44 0L78.46 0 69.55-25.17 74.82-25.17 79.17-11.57Q79.7-9.69 80.27-7.79 80.83-5.88 81.36-4.03L81.36-4.03 81.58-4.03Q82.12-5.88 82.7-7.79 83.27-9.69 83.81-11.57L83.81-11.57 88.18-25.17 93.16-25.17 84.44 0ZM108.24 0.61L108.24 0.61Q104.85 0.61 102.07-0.96 99.28-2.54 97.65-5.48 96.01-8.42 96.01-12.57L96.01-12.57Q96.01-16.65 97.66-19.63 99.31-22.61 101.93-24.21 104.56-25.81 107.49-25.81L107.49-25.81Q112.44-25.81 115.08-22.53 117.71-19.26 117.71-13.89L117.71-13.89Q117.71-13.13 117.65-12.43 117.59-11.72 117.49-11.23L117.49-11.23 101.06-11.23Q101.38-7.59 103.49-5.49 105.61-3.39 108.9-3.39L108.9-3.39Q110.63-3.39 112.15-3.87 113.66-4.35 115.03-5.22L115.03-5.22 116.76-2.05Q115-0.83 112.88-0.11 110.76 0.61 108.24 0.61ZM101.02-14.79L101.02-14.79 113.22-14.79Q113.22-18.14 111.78-19.96 110.34-21.78 107.58-21.78L107.58-21.78Q105.17-21.78 103.27-19.97 101.38-18.16 101.02-14.79ZM124.72 10.57L124.72 10.57Q123.77 10.57 123 10.42 122.23 10.28 121.59 9.99L121.59 9.99 122.59 6.05Q123.08 6.2 123.53 6.29 123.99 6.37 124.4 6.37L124.4 6.37Q126.45 6.37 127.73 5 129.02 3.64 129.72 1.54L129.72 1.54 130.29-0.15 120.25-25.17 125.52-25.17 130.24-12.11Q130.8-10.45 131.37-8.61 131.95-6.76 132.56-4.98L132.56-4.98 132.78-4.98Q133.26-6.74 133.76-8.56 134.26-10.38 134.75-12.11L134.75-12.11 138.88-25.17 143.88-25.17 134.61 1.54Q133.63 4.25 132.34 6.27 131.04 8.3 129.2 9.44 127.36 10.57 124.72 10.57Z" fill="#068026" data-fill-palette-color="primary"></path><path d="M169.12 10.25L163.95 10.25 163.95-25.17 168.22-25.17 168.63-22.41 168.76-22.41Q170.39-23.78 172.42-24.79 174.44-25.81 176.54-25.81L176.54-25.81Q181.33-25.81 183.93-22.3 186.53-18.8 186.53-12.99L186.53-12.99Q186.53-8.69 184.99-5.65 183.45-2.61 180.99-1 178.52 0.61 175.66 0.61L175.66 0.61Q173.98 0.61 172.3-0.12 170.61-0.85 168.98-2.22L168.98-2.22 169.12 2.08 169.12 10.25ZM174.66-3.66L174.66-3.66Q177.47-3.66 179.34-6.07 181.21-8.47 181.21-12.92L181.21-12.92Q181.21-16.87 179.78-19.2 178.35-21.53 175.18-21.53L175.18-21.53Q173.71-21.53 172.23-20.74 170.76-19.95 169.12-18.38L169.12-18.38 169.12-6.01Q170.64-4.71 172.06-4.19 173.49-3.66 174.66-3.66ZM197.95 0L192.78 0 192.78-25.17 197.05-25.17 197.46-20.68 197.59-20.68Q198.93-23.1 200.81-24.45 202.69-25.81 204.76-25.81L204.76-25.81Q206.4-25.81 207.55-25.29L207.55-25.29 206.45-20.87Q205.86-21.04 205.36-21.12 204.86-21.19 204.08-21.19L204.08-21.19Q202.54-21.19 200.85-19.97 199.15-18.75 197.95-15.72L197.95-15.72 197.95 0ZM221.46 0.61L221.46 0.61Q218.36 0.61 215.66-0.94 212.96-2.49 211.32-5.43 209.67-8.37 209.67-12.57L209.67-12.57Q209.67-16.75 211.32-19.71 212.96-22.68 215.66-24.24 218.36-25.81 221.46-25.81L221.46-25.81Q224.61-25.81 227.31-24.24 230.01-22.68 231.67-19.71 233.33-16.75 233.33-12.57L233.33-12.57Q233.33-8.37 231.67-5.43 230.01-2.49 227.31-0.94 224.61 0.61 221.46 0.61ZM221.46-3.61L221.46-3.61Q224.46-3.61 226.25-6.07 228.03-8.52 228.03-12.57L228.03-12.57Q228.03-16.6 226.25-19.08 224.46-21.56 221.46-21.56L221.46-21.56Q218.51-21.56 216.74-19.08 214.97-16.6 214.97-12.57L214.97-12.57Q214.97-8.52 216.74-6.07 218.51-3.61 221.46-3.61Z" fill="#00d1cd" data-fill-palette-color="secondary"></path></g></svg></g></svg></g></svg></g></svg></g><g><svg viewBox="0 0 137.26158554461895 134.40044405037779" height="134.40044405037779" width="137.26158554461895"><g><svg xmlns="http://www.w3.org/2000/svg" xmlns:xlink="http://www.w3.org/1999/xlink" version="1.1" x="0" y="0" viewBox="5 5.876 90 88.124" enable-background="new 0 0 100 100" xml:space="preserve" height="134.40044405037779" width="137.26158554461895" class="icon-icon-0" data-fill-palette-color="accent" id="icon-0"><path d="M82.535 12.567C82.515 12.568 82.498 12.571 82.48 12.573L54.959 16.147C54.219 14.965 53.133 14.025 52 13.517V8.112C52 6.879 50.732 5.876 49.5 5.876 48.267 5.876 47 6.879 47 8.112V13.517C45.419 14.225 43.92 15.764 43.354 17.654L16.532 21.137A2.384 2.384 0 0 0 14.417 23.725 2.37 2.37 0 0 0 17.007 25.875C17.026 25.874 17.044 25.871 17.063 25.869L44.083 22.36C44.822 23.511 45.889 24.426 47 24.925V30.33C47 31.128 47.51 31.824 48.141 32.22 47.998 32.452 48 32.724 48 33.017V87H42.559C41.67 87 40.949 87.869 40.949 88.758 40.949 88.789 40.957 89 40.959 89H37.344C36.04 89 35.019 90.014 35.019 91.5S36.04 94 37.344 94H61.479C62.785 94 63.805 92.986 63.805 91.5S62.782 89 61.477 89H57.07C57.072 89 57.08 88.789 57.08 88.758 57.08 87.869 56.359 87 55.471 87H51V33.017C51 32.687 51.07 32.385 50.895 32.136 51.455 31.729 52 31.074 52 30.331V24.926C53.561 24.227 55.045 22.719 55.627 20.862L83.012 17.305A2.383 2.383 0 0 0 85.126 14.717 2.367 2.367 0 0 0 82.535 12.567" fill="#0d9107" data-fill-palette-color="accent"></path><path d="M92.674 65.765H92.102L90.995 60.343C93.167 57.892 94.498 54.757 94.498 51.233 94.498 45.783 91.335 41.109 86.756 38.836L82.095 15.059A1.51 1.51 0 0 0 80.609 13.845C79.885 13.845 79.26 14.364 79.123 15.074L74.463 38.874C69.884 41.147 66.721 45.862 66.721 51.312 66.721 54.832 68.048 57.882 70.213 60.333L69.123 65.765H68.541C67.236 65.765 66.215 67.279 66.215 68.765S67.236 71.765 68.541 71.765H72.949C72.947 71.765 72.939 71.474 72.939 71.507 72.939 72.396 73.66 72.765 74.547 72.765H87.458C88.349 72.765 89.067 72.396 89.067 71.507 89.067 71.474 89.059 71.765 89.057 71.765H92.672C93.979 71.765 95 70.251 95 68.765S93.979 65.765 92.674 65.765M72.807 62.845C75.033 64.361 77.717 65.226 80.608 65.226S86.182 64.374 88.408 62.858L88.994 65.765H72.219zM80.605 23.251L83.437 37.713A13.9 13.9 0 0 0 77.773 37.713zM80.605 40.452C86.592 40.452 91.464 45.324 91.464 51.312S86.592 62.171 80.605 62.171 69.747 57.299 69.747 51.312C69.747 45.324 74.618 40.452 80.605 40.452" fill="#0d9107" data-fill-palette-color="accent"></path><path d="M75.137 53.765H86.076C87.271 53.765 88.241 52.46 88.241 51.265S87.271 48.765 86.076 48.765H75.137C73.942 48.765 72.973 50.07 72.973 51.265S73.939 53.765 75.137 53.765" fill="#0d9107" data-fill-palette-color="accent"></path><path d="M31.752 76.831A2 2 0 0 0 31.694 76.458L30.38 69.686C32.563 67.231 33.901 64.011 33.901 60.476 33.901 55.021 30.732 50.303 26.144 48.033L21.499 24.312A1.514 1.514 0 0 0 18.526 24.312L13.881 48.033C9.294 50.303 6.124 55.021 6.124 60.476 6.124 64.016 7.466 67.242 9.654 69.697L8.299 76.566C8.284 76.632 8.284 76.765 8.28 76.765H7.326C6.021 76.765 5 77.779 5 79.265S6.021 81.765 7.326 81.765H11.734C11.732 81.765 11.724 81.976 11.724 82.009 11.724 82.896 12.445 83.765 13.333 83.765H26.245C27.134 83.765 27.853 82.896 27.853 82.009 27.853 81.976 27.845 81.765 27.843 81.765H31.459C32.764 81.765 33.785 80.769 33.785 79.283 33.787 77.909 32.913 76.993 31.752 76.831M28.398 75.765H11.624L12.312 72.077C14.517 73.552 17.164 74.389 20.01 74.389S25.504 73.563 27.709 72.088zM20.011 32.486L22.829 46.876A13.9 13.9 0 0 0 17.193 46.876zM20.011 49.617C25.999 49.617 30.87 54.49 30.87 60.476 30.87 66.465 25.999 71.335 20.011 71.335S9.152 66.465 9.152 60.476C9.151 54.489 14.023 49.617 20.011 49.617" fill="#0d9107" data-fill-palette-color="accent"></path><path d="M14.541 62.765H18V65.947C18 67.142 18.806 68.111 20 68.111 21.195 68.111 22 67.142 22 65.947V62.765H25.481C26.676 62.765 27.645 61.958 27.645 60.764S26.677 58.765 25.481 58.765H22V55.007C22 53.812 21.195 52.841 20 52.841S18 53.812 18 55.007V58.765H14.541C13.346 58.765 12.376 59.57 12.376 60.764S13.346 62.765 14.541 62.765" fill="#0d9107" data-fill-palette-color="accent"></path></svg></g></svg></g></svg></g><defs></defs></svg><rect width="395.52" height="97.11304767676799" fill="none" stroke="none" visibility="hidden"></rect></g></svg></g></svg>